PathFileType   4   (X/Y/Z)
DataRate	CameraRate	NumFrames	NumMarkers	Units	OrigDataRate	OrigDataStartFrame	OrigNumFrames
120.0	120.0	7	37	mm	120.0	79	126
Frame#	Time	midhip	hip_r	hip_l	knee_r	knee_l	ankle_r	ankle_l	midasis	asis_r	asis_l	psis_r	psis_l	epicondLat_r	epicondLat_l	epicondMed_r	epicondMed_l	malleolusLat_r	malleolusLat_l	malleolusMedv_r	malleolusMedv_l	neck	subclavicle_r	subclavicle_l	sternalnotch	xyphoidprocess	thighwand_r	thighwand_l	upperleg1_r	upperleg1_l	upperleg2_r	upperleg2_l	shankwand_r	shankwand_l	lowerleg1_r	lowerleg1_l	toe_r	toe_l
 	 	X1	Y1	Z1	X2	Y2	Z2	X3	Y3	Z3	X4	Y4	Z4	X5	Y5	Z5	X6	Y6	Z6	X7	Y7	Z7	X8	Y8	Z8	X9	Y9	Z9	X10	Y10	Z10	X11	Y11	Z11	X12	Y12	Z12	X13	Y13	Z13	X14	Y14	Z14	X15	Y15	Z15	X16	Y16	Z16	X17	Y17	Z17	X18	Y18	Z18	X19	Y19	Z19	X20	Y20	Z20	X21	Y21	Z21	X22	Y22	Z22	X23	Y23	Z23	X24	Y24	Z24	X25	Y25	Z25	X26	Y26	Z26	X27	Y27	Z27	X28	Y28	Z28	X29	Y29	Z29	X30	Y30	Z30	X31	Y31	Z31	X32	Y32	Z32	X33	Y33	Z33	X34	Y34	Z34	X35	Y35	Z35	X36	Y36	Z36	X37	Y37	Z37

	79	0.79167	628.891	729.581	-262.616	617.027	729.232	-200.303	610.767	718.625	-330.035	718.762	403.145	-230.244	598.066	397.717	-356.959	708.800	65.853	-237.175	323.916	177.986	-360.365	683.822	792.647	-274.161	688.648	800.826	-174.129	678.996	784.469	-374.193	525.936	835.658	-236.714	522.690	829.447	-291.759	727.009	400.729	-175.920	584.915	402.656	-409.617	720.267	406.715	-274.405	612.172	363.762	-309.893	706.606	65.148	-199.746	315.117	189.492	-394.412	711.926	64.720	-262.262	326.923	173.609	-330.705	546.674	1198.991	-290.866	650.097	1143.558	-231.079	661.780	1147.038	-305.814	641.693	1143.529	-272.170	673.027	1062.507	-268.608	799.864	541.254	-125.547	749.967	512.359	-391.454	704.386	574.235	-141.074	675.304	573.933	-404.081	729.660	495.577	-163.225	662.533	486.800	-403.023	707.864	169.812	-120.439	410.992	266.102	-470.449	701.878	138.205	-196.907	381.960	239.809	-395.621	807.009	36.744	-215.506	299.800	70.609	-367.285
	80	0.80000	636.558	730.829	-261.761	624.663	730.391	-199.471	618.793	720.015	-329.240	722.041	403.099	-229.418	615.933	399.075	-356.970	708.928	65.808	-237.075	340.834	182.145	-359.174	691.833	793.782	-273.010	696.362	801.787	-172.891	687.305	785.777	-373.129	533.749	837.104	-236.184	530.713	830.997	-291.099	729.923	400.469	-175.049	602.436	403.740	-409.566	723.122	406.721	-273.380	630.985	363.967	-310.833	706.603	65.049	-199.655	332.230	193.403	-393.353	712.030	64.669	-262.175	344.119	177.046	-329.702	555.321	1200.496	-290.006	658.149	1144.662	-230.524	669.866	1148.051	-305.895	649.748	1144.671	-271.915	680.597	1063.464	-268.335	804.250	540.087	-124.010	763.984	516.923	-391.826	708.602	574.483	-139.975	687.266	576.374	-404.003	733.140	495.266	-162.149	677.277	489.169	-403.393	708.585	169.585	-120.107	428.791	268.407	-469.787	702.622	137.882	-196.737	399.645	242.639	-394.926	806.997	36.672	-215.372	316.728	74.396	-367.622
	81	0.80833	644.112	732.343	-259.847	632.177	731.554	-198.670	626.806	721.457	-328.482	724.943	403.019	-228.610	633.703	400.679	-356.906	709.122	65.763	-236.977	357.968	186.053	-357.747	699.770	794.958	-271.808	703.915	802.750	-171.623	695.625	787.166	-371.993	541.012	838.630	-235.606	538.725	832.605	-290.435	732.574	400.216	-174.214	619.981	405.042	-409.469	724.239	406.424	-272.158	649.536	364.680	-311.018	706.590	64.954	-199.571	349.604	196.934	-392.107	712.156	64.651	-262.102	361.639	180.398	-328.508	563.915	1202.046	-289.251	664.957	1145.624	-230.393	675.308	1148.726	-305.427	655.785	1145.697	-271.360	685.488	1064.045	-268.209	808.582	539.012	-122.715	777.817	521.621	-391.797	713.944	574.891	-139.161	699.082	578.845	-403.623	736.473	494.899	-161.152	691.778	491.686	-403.277	708.998	169.408	-119.826	446.833	270.216	-469.033	702.991	137.665	-196.514	417.373	245.465	-393.988	806.987	36.600	-215.241	336.102	77.832	-368.047
	82	0.81667	651.789	733.806	-258.207	639.558	732.744	-197.895	634.791	722.955	-327.755	727.447	402.928	-227.867	651.300	402.540	-356.771	709.349	65.721	-236.898	375.382	189.605	-356.143	707.630	796.179	-270.562	711.309	803.734	-170.338	703.950	788.623	-370.787	548.491	840.140	-235.076	546.846	834.189	-289.884	734.928	399.978	-173.458	637.452	406.586	-409.327	724.777	406.317	-270.850	668.262	365.326	-311.362	706.560	64.869	-199.512	367.272	200.012	-390.711	712.260	64.670	-262.041	379.406	183.586	-327.049	572.430	1203.582	-288.563	675.805	1147.128	-229.641	688.793	1150.642	-304.783	668.103	1147.212	-271.162	698.853	1065.986	-267.202	812.849	538.000	-121.636	791.397	526.512	-391.431	719.626	575.425	-138.355	710.570	581.359	-402.828	739.771	494.721	-160.136	706.147	494.330	-402.967	709.162	169.295	-119.608	465.055	271.593	-468.186	703.101	137.570	-196.232	435.222	248.120	-392.799	806.973	36.541	-215.128	357.647	80.882	-368.544
	83	0.82500	659.427	735.220	-256.566	646.830	733.939	-197.145	642.760	724.487	-327.054	729.686	402.860	-227.220	668.625	404.657	-356.545	709.582	65.682	-236.848	393.145	192.649	-354.445	715.413	797.435	-269.276	718.553	804.728	-169.039	712.273	790.141	-369.512	555.962	841.626	-234.520	554.980	835.759	-289.378	737.065	399.763	-172.805	654.784	408.386	-409.127	727.623	406.611	-270.209	685.583	367.096	-311.315	706.517	64.798	-199.484	385.282	202.522	-389.226	712.311	64.704	-262.017	397.593	186.455	-325.442	580.917	1205.079	-287.813	683.891	1148.358	-229.320	694.247	1151.520	-304.499	674.729	1148.393	-270.359	704.818	1066.883	-267.213	817.014	536.977	-120.714	804.746	531.557	-390.635	724.584	575.660	-137.672	722.550	584.321	-402.283	743.573	494.805	-159.396	720.424	497.198	-402.570	709.189	169.252	-119.450	483.435	272.576	-467.248	703.161	137.500	-196.012	453.271	250.477	-391.503	806.951	36.502	-215.041	380.915	83.499	-369.047
	84	0.83333	667.146	736.476	-255.831	653.960	735.122	-196.443	650.683	726.054	-326.401	731.828	402.823	-226.685	685.634	407.010	-356.211	709.793	65.646	-236.825	411.324	195.010	-352.742	723.108	798.700	-267.960	725.635	805.694	-167.732	720.580	791.706	-368.188	563.797	843.040	-234.005	563.063	837.315	-288.875	739.103	399.575	-172.266	671.940	410.428	-408.852	730.794	406.688	-269.782	701.348	370.139	-310.597	706.465	64.740	-199.484	403.687	204.319	-387.728	712.327	64.728	-262.046	416.272	188.931	-323.820	589.345	1206.562	-286.969	692.732	1149.693	-228.977	704.463	1153.123	-304.056	684.329	1149.819	-270.232	714.660	1068.412	-266.775	821.045	535.881	-119.909	817.910	536.792	-389.420	728.996	575.651	-137.244	735.103	587.812	-402.121	747.186	494.773	-158.860	734.651	500.346	-402.050	709.216	169.258	-119.345	501.977	273.163	-466.238	703.357	137.455	-195.970	471.457	252.329	-390.256	806.920	36.482	-214.981	405.260	85.687	-369.383
	85	0.84167	674.902	737.734	-255.334	661.000	736.248	-195.791	658.555	727.626	-325.798	733.972	402.822	-226.271	702.307	409.552	-355.759	709.953	65.610	-236.834	429.979	196.520	-351.109	730.720	799.949	-266.639	732.605	806.595	-166.429	728.835	793.304	-366.849	571.654	844.386	-233.449	571.066	838.835	-288.360	741.102	399.406	-171.842	688.895	412.674	-408.490	733.571	407.058	-269.671	716.482	373.436	-309.486	706.417	64.693	-199.513	422.541	205.261	-386.284	712.308	64.750	-262.121	435.368	190.789	-322.241	597.679	1208.036	-286.186	700.526	1151.093	-228.660	711.522	1154.385	-303.750	691.712	1151.214	-269.779	721.693	1069.668	-266.531	824.920	534.688	-119.164	830.912	542.245	-387.805	733.679	575.675	-136.857	747.480	591.365	-401.652	750.726	494.806	-158.479	748.547	503.672	-401.172	709.373	169.282	-119.290	520.705	273.319	-465.199	703.762	137.475	-195.998	489.835	253.420	-389.098	806.886	36.474	-214.949	430.177	87.421	-369.477
